<?xml version="1.0" encoding="UTF-8"?>
<svg xmlns="http://www.w3.org/2000/svg" version="1.1" viewBox="0 0 180.9 184.6">
  <defs>
    <style>
      .cls-1 {
        fill: #002447;
      }
    </style>
  </defs>
  <g>
    <g id="Layer_1">
      <path class="cls-1" d="M90.6,177.2c-46.8,0-84.3-37.8-84.9-84.7C5.2,49.7,39.4,7.5,90.5,7.4c47.2-.1,84.7,36.5,85.2,86.2.4,45.5-38.6,83.6-85.1,83.6h0ZM142.9,76.8c-5.1-5.8-9.6-10.7-13.8-15.8-1.9-2.3-4-3.2-7.1-3.2-18.9.1-37.9.4-56.8-.1-7.2-.2-12.4,1.5-16.5,7.5-2.7,3.9-6.3,7.3-10.2,11.7h104.4,0ZM90.9,80.5h-3.5c-15.3,0-30.6,0-46,0-3,0-4.6.8-4.5,4.1.2,5.4,2.6,8,8.5,8,30.1,0,60.1,0,90.2,0,1.4,0,2.9-.1,4.3-.6,3.4-1.1,5.1-4.9,4.5-8.9-.6-3.9-3.7-2.6-5.8-2.6-15.9,0-31.8,0-47.7,0ZM64.8,109.8c0-3.6,0-7.2,0-10.8,0-2.1-.5-3.3-2.9-3.2-3.8,0-7.5-.1-11.2.1-1.1,0-2.9,1.4-2.9,2.1-.2,7.8-.3,15.6.2,23.3.3,4.4,4,5.9,10.6,5.2,4.1-.4,6.1-2.6,6.2-6.8,0-3.3,0-6.6,0-9.9ZM116.5,109.6h0c0,3.6-.1,7.2,0,10.8.2,4.7,2.5,6.2,8.5,6.2,5.8,0,8.2-1.8,8.3-6.4.2-4.6,0-9.2,0-13.9,0-7-3.6-10.5-10.7-10.5-4.1,0-6.2,2-6.2,6,0,2.6,0,5.2,0,7.8Z"/>
      <path class="cls-1" d="M862.1,96.6h0"/>
    </g>
  </g>
</svg>